# xmcd
#
# Track frame offsets: 
#        150
#        19065
#        35097
#        49110
#        68888
#        87666
#        108681
#        127577
#        145841
#        159012
#
# Disc length: 2346 seconds
#
# Revision: 1
# Processed by: cddbd v1.4PL0 Copyright (c) Steve Scherf et al.
# Submitted via: ExactAudioCopy v0.90b4
#
DISCID=8109280a
DTITLE=Rosie Flores - Speed Of Sound
DYEAR=2001
DGENRE=Country
TTITLE0=Rock-A-Bye Boogie
TTITLE1=Don't Know If I'm Comin' Or Goin'
TTITLE2=Hot Dog
TTITLE3=Devil Love
TTITLE4=Don't Take It Away
TTITLE5=Speed Of Sound
TTITLE6=Somebody's Someone
TTITLE7=Somewhere Down The Line
TTITLE8=I Push Right Over
TTITLE9=Country Boy
EXTD=
EXTT0=
EXTT1=
EXTT2=
EXTT3=
EXTT4=
EXTT5=
EXTT6=
EXTT7=
EXTT8=
EXTT9=
PLAYORDER=
